{
  "accessors": [
    {
      "bufferView": 2,
      "componentType": 5126,
      "count": 390,
      "max": [
        0.40785807371139526,
        0.2547451853752136,
        0.4424324333667755
      ],
      "min": [
        0.17078475654125214,
        -0.2547801733016968,
        -0.4424324333667755
      ],
      "type": "VEC3"
    },
    {
      "bufferView": 2,
      "byteOffset": 4680,
      "componentType": 5126,
      "count": 390,
      "max": [
        1.0,
        1.0,
        1.0
      ],
      "min": [
        -1.0,
        -1.0,
        -1.0
      ],
      "type": "VEC3"
    },
    {
      "bufferView": 3,
      "componentType": 5126,
      "count": 390,
      "max": [
        1.0,
        1.0,
        1.0,
        1.0
      ],
      "min": [
        -1.0,
        -1.0,
        -1.0,
        1.0
      ],
      "type": "VEC4"
    },
    {
      "bufferView": 1,
      "componentType": 5126,
      "count": 390,
      "max": [
        0.9881421327590942,
        0.9716013669967651
      ],
      "min": [
        0.0010979812359437346,
        0.0010979692451655865
      ],
      "type": "VEC2"
    },
    {
      "bufferView": 0,
      "componentType": 5125,
      "count": 1029,
      "type": "SCALAR"
    },
    {
      "bufferView": 2,
      "byteOffset": 9360,
      "componentType": 5126,
      "count": 628,
      "max": [
        0.29664063453674316,
        0.25067031383514404,
        0.4275924861431122
      ],
      "min": [
        -0.012775221839547157,
        -0.25067031383514404,
        -0.4373774230480194
      ],
      "type": "VEC3"
    },
    {
      "bufferView": 2,
      "byteOffset": 16896,
      "componentType": 5126,
      "count": 628,
      "max": [
        1.0,
        1.0,
        1.0
      ],
      "min": [
        -1.0,
        -1.0,
        -1.0
      ],
      "type": "VEC3"
    },
    {
      "bufferView": 3,
      "byteOffset": 6240,
      "componentType": 5126,
      "count": 628,
      "max": [
        1.0,
        1.0,
        4.729394277092069e-06,
        1.0
      ],
      "min": [
        -1.0,
        -1.0,
        -0.7844527959823608,
        1.0
      ],
      "type": "VEC4"
    },
    {
      "bufferView": 1,
      "byteOffset": 3120,
      "componentType": 5126,
      "count": 628,
      "max": [
        0.8488489389419556,
        0.8690892457962036
      ],
      "min": [
        0.0010979807702824473,
        0.0010979807702824473
      ],
      "type": "VEC2"
    },
    {
      "bufferView": 0,
      "byteOffset": 4116,
      "componentType": 5125,
      "count": 942,
      "type": "SCALAR"
    },
    {
      "bufferView": 2,
      "byteOffset": 24432,
      "componentType": 5126,
      "count": 168,
      "max": [
        -0.11716559529304504,
        0.2560773491859436,
        0.4438474476337433
      ],
      "min": [
        -0.32187578082084656,
        -0.2560773491859436,
        -0.4438474476337433
      ],
      "type": "VEC3"
    },
    {
      "bufferView": 2,
      "byteOffset": 26448,
      "componentType": 5126,
      "count": 168,
      "max": [
        1.0,
        0.9827685952186584,
        0.9843742251396179
      ],
      "min": [
        -1.0,
        -0.9817159175872803,
        -0.9843743443489075
      ],
      "type": "VEC3"
    },
    {
      "bufferView": 3,
      "byteOffset": 16288,
      "componentType": 5126,
      "count": 168,
      "max": [
        0.9997572898864746,
        1.0,
        0.6939724683761597,
        1.0
      ],
      "min": [
        -1.0,
        -1.0,
        -1.0,
        1.0
      ],
      "type": "VEC4"
    },
    {
      "bufferView": 1,
      "byteOffset": 8144,
      "componentType": 5126,
      "count": 168,
      "max": [
        0.9989021420478821,
        0.868713915348053
      ],
      "min": [
        0.0010979807702824473,
        0.0010979768121615052
      ],
      "type": "VEC2"
    },
    {
      "bufferView": 0,
      "byteOffset": 7884,
      "componentType": 5125,
      "count": 528,
      "type": "SCALAR"
    },
    {
      "bufferView": 2,
      "byteOffset": 28464,
      "componentType": 5126,
      "count": 118,
      "max": [
        -0.33179131150245667,
        0.33284810185432434,
        0.41101789474487305
      ],
      "min": [
        -0.6047524213790894,
        -0.1195736676454544,
        -0.41101789474487305
      ],
      "type": "VEC3"
    },
    {
      "bufferView": 2,
      "byteOffset": 29880,
      "componentType": 5126,
      "count": 118,
      "max": [
        1.0,
        0.9990109205245972,
        1.0
      ],
      "min": [
        -0.9943075180053711,
        -1.0,
        -1.0
      ],
      "type": "VEC3"
    },
    {
      "bufferView": 3,
      "byteOffset": 18976,
      "componentType": 5126,
      "count": 118,
      "max": [
        0.9990108609199524,
        0.9943075180053711,
        0.43865635991096497,
        1.0
      ],
      "min": [
        -1.0,
        -1.0,
        -0.43865641951560974,
        1.0
      ],
      "type": "VEC4"
    },
    {
      "bufferView": 1,
      "byteOffset": 9488,
      "componentType": 5126,
      "count": 118,
      "max": [
        0.9636527895927429,
        0.9652841687202454
      ],
      "min": [
        0.03676781803369522,
        0.0010979807702824473
      ],
      "type": "VEC2"
    },
    {
      "bufferView": 0,
      "byteOffset": 9996,
      "componentType": 5125,
      "count": 276,
      "type": "SCALAR"
    },
    {
      "bufferView": 2,
      "byteOffset": 31296,
      "componentType": 5126,
      "count": 3104,
      "max": [
        0.08888706564903259,
        0.04905197396874428,
        0.31228798627853394
      ],
      "min": [
        -0.07079397886991501,
        -0.06390807032585144,
        -0.4713878035545349
      ],
      "type": "VEC3"
    },
    {
      "bufferView": 2,
      "byteOffset": 68544,
      "componentType": 5126,
      "count": 3104,
      "max": [
        0.8552142381668091,
        0.8552148342132568,
        1.0
      ],
      "min": [
        -0.9712040424346924,
        -0.9844405651092529,
        -1.0
      ],
      "type": "VEC3"
    },
    {
      "bufferView": 3,
      "byteOffset": 20864,
      "componentType": 5126,
      "count": 3104,
      "max": [
        0.5684592127799988,
        0.9790264368057251,
        1.0,
        1.0
      ],
      "min": [
        -0.9567714333534241,
        -0.8552138805389404,
        -1.0,
        1.0
      ],
      "type": "VEC4"
    },
    {
      "bufferView": 1,
      "byteOffset": 10432,
      "componentType": 5126,
      "count": 3104,
      "max": [
        0.9897164106369019,
        0.9889852404594421
      ],
      "min": [
        0.0010979782091453671,
        0.0010979827493429184
      ],
      "type": "VEC2"
    },
    {
      "bufferView": 0,
      "byteOffset": 11100,
      "componentType": 5125,
      "count": 8460,
      "type": "SCALAR"
    },
    {
      "bufferView": 2,
      "byteOffset": 105792,
      "componentType": 5126,
      "count": 327,
      "max": [
        -0.04807572811841965,
        0.020607218146324158,
        -0.10283168405294418
      ],
      "min": [
        -0.23829182982444763,
        -0.01611647754907608,
        -1.012394666671753
      ],
      "type": "VEC3"
    },
    {
      "bufferView": 2,
      "byteOffset": 109716,
      "componentType": 5126,
      "count": 327,
      "max": [
        0.9999890923500061,
        0.9999839067459106,
        0.9991559386253357
      ],
      "min": [
        -0.9999890923500061,
        -0.9999895691871643,
        -0.9996654987335205
      ],
      "type": "VEC3"
    },
    {
      "bufferView": 3,
      "byteOffset": 70528,
      "componentType": 5126,
      "count": 327,
      "max": [
        0.9999829530715942,
        0.9999997615814209,
        0.9999869465827942,
        1.0
      ],
      "min": [
        -0.9999960660934448,
        -0.9999964833259583,
        -0.9999935626983643,
        1.0
      ],
      "type": "VEC4"
    },
    {
      "bufferView": 1,
      "byteOffset": 35264,
      "componentType": 5126,
      "count": 327,
      "max": [
        0.8612984418869019,
        0.9640468955039978
      ],
      "min": [
        0.3958703875541687,
        0.24331320822238922
      ],
      "type": "VEC2"
    },
    {
      "bufferView": 0,
      "byteOffset": 44940,
      "componentType": 5125,
      "count": 1194,
      "type": "SCALAR"
    },
    {
      "bufferView": 2,
      "byteOffset": 113640,
      "componentType": 5126,
      "count": 40,
      "max": [
        0.005963919684290886,
        0.005963919684290886,
        0.005963919684290886
      ],
      "min": [
        -0.005963919684290886,
        -0.005963919684290886,
        -0.005963919684290886
      ],
      "type": "VEC3"
    },
    {
      "bufferView": 2,
      "byteOffset": 114120,
      "componentType": 5126,
      "count": 40,
      "max": [
        1.0,
        1.0,
        1.0
      ],
      "min": [
        -1.0,
        -1.0,
        -1.0
      ],
      "type": "VEC3"
    },
    {
      "bufferView": 3,
      "byteOffset": 75760,
      "componentType": 5126,
      "count": 40,
      "max": [
        1.0,
        1.0,
        0.0,
        1.0
      ],
      "min": [
        -1.0,
        -1.0,
        -6.919291362095237e-09,
        1.0
      ],
      "type": "VEC4"
    },
    {
      "bufferView": 1,
      "byteOffset": 37880,
      "componentType": 5126,
      "count": 40,
      "max": [
        0.8444207906723022,
        0.48742592334747314
      ],
      "min": [
        0.801379382610321,
        0.48413529992103577
      ],
      "type": "VEC2"
    },
    {
      "bufferView": 0,
      "byteOffset": 49716,
      "componentType": 5125,
      "count": 84,
      "type": "SCALAR"
    },
    {
      "bufferView": 2,
      "byteOffset": 114600,
      "componentType": 5126,
      "count": 40,
      "max": [
        0.005963919684290886,
        0.005963919684290886,
        0.005963919684290886
      ],
      "min": [
        -0.005963919684290886,
        -0.005963919684290886,
        -0.005963919684290886
      ],
      "type": "VEC3"
    },
    {
      "bufferView": 2,
      "byteOffset": 115080,
      "componentType": 5126,
      "count": 40,
      "max": [
        1.0,
        1.0,
        1.0
      ],
      "min": [
        -1.0,
        -1.0,
        -1.0
      ],
      "type": "VEC3"
    },
    {
      "bufferView": 3,
      "byteOffset": 76400,
      "componentType": 5126,
      "count": 40,
      "max": [
        1.0,
        1.0,
        0.0,
        1.0
      ],
      "min": [
        -1.0,
        -1.0,
        -6.9193926144350826e-09,
        1.0
      ],
      "type": "VEC4"
    },
    {
      "bufferView": 1,
      "byteOffset": 38200,
      "componentType": 5126,
      "count": 40,
      "max": [
        0.871251106262207,
        0.48742592334747314
      ],
      "min": [
        0.8187620043754578,
        0.4722907543182373
      ],
      "type": "VEC2"
    },
    {
      "bufferView": 0,
      "byteOffset": 50052,
      "componentType": 5125,
      "count": 84,
      "type": "SCALAR"
    }
  ],
  "asset": {
    "extras": {
      "author": "Canicule (https://sketchfab.com/Canicule)",
      "license": "CC-BY-4.0 (http://creativecommons.org/licenses/by/4.0/)",
      "source": "https://sketchfab.com/3d-models/accordion-1eba72a0b1b84b72a32d92e63158e513",
      "title": "Accordion"
    },
    "generator": "Sketchfab-16.68.0",
    "version": "2.0"
  },
  "bufferViews": [
    {
      "buffer": 0,
      "byteLength": 50388,
      "name": "floatBufferViews",
      "target": 34963
    },
    {
      "buffer": 0,
      "byteLength": 38520,
      "byteOffset": 50388,
      "byteStride": 8,
      "name": "floatBufferViews",
      "target": 34962
    },
    {
      "buffer": 0,
      "byteLength": 115560,
      "byteOffset": 88908,
      "byteStride": 12,
      "name": "floatBufferViews",
      "target": 34962
    },
    {
      "buffer": 0,
      "byteLength": 77040,
      "byteOffset": 204468,
      "byteStride": 16,
      "name": "floatBufferViews",
      "target": 34962
    }
  ],
  "buffers": [
    {
      "byteLength": 281508,
      "uri": "scene.bin"
    }
  ],
  "extensionsUsed": [
    "KHR_materials_clearcoat",
    "KHR_materials_specular"
  ],
  "images": [
    {
      "uri": "textures/Scene_-_Root_baseColor.png"
    },
    {
      "uri": "textures/Scene_-_Root_metallicRoughness.png"
    },
    {
      "uri": "textures/Scene_-_Root_normal.png"
    }
  ],
  "materials": [
    {
      "doubleSided": true,
      "extensions": {
        "KHR_materials_clearcoat": {
          "clearcoatFactor": 0.6689544196706123,
          "clearcoatRoughnessFactor": 0.04
        },
        "KHR_materials_specular": {
          "specularColorFactor": [
            1.0,
            1.0,
            1.0
          ],
          "specularFactor": 0.7055259596981628
        }
      },
      "name": "Scene_-_Root",
      "normalTexture": {
        "index": 2
      },
      "pbrMetallicRoughness": {
        "baseColorTexture": {
          "index": 0
        },
        "metallicRoughnessTexture": {
          "index": 1
        }
      }
    }
  ],
  "meshes": [
    {
      "name": "Cube__0",
      "primitives": [
        {
          "attributes": {
            "NORMAL": 1,
            "POSITION": 0,
            "TANGENT": 2,
            "TEXCOORD_0": 3
          },
          "indices": 4,
          "material": 0,
          "mode": 4
        }
      ]
    },
    {
      "name": "Cube.001__0",
      "primitives": [
        {
          "attributes": {
            "NORMAL": 6,
            "POSITION": 5,
            "TANGENT": 7,
            "TEXCOORD_0": 8
          },
          "indices": 9,
          "material": 0,
          "mode": 4
        }
      ]
    },
    {
      "name": "Cube.003__0",
      "primitives": [
        {
          "attributes": {
            "NORMAL": 11,
            "POSITION": 10,
            "TANGENT": 12,
            "TEXCOORD_0": 13
          },
          "indices": 14,
          "material": 0,
          "mode": 4
        }
      ]
    },
    {
      "name": "Cube.004__0",
      "primitives": [
        {
          "attributes": {
            "NORMAL": 16,
            "POSITION": 15,
            "TANGENT": 17,
            "TEXCOORD_0": 18
          },
          "indices": 19,
          "material": 0,
          "mode": 4
        }
      ]
    },
    {
      "name": "Cube.032__0",
      "primitives": [
        {
          "attributes": {
            "NORMAL": 21,
            "POSITION": 20,
            "TANGENT": 22,
            "TEXCOORD_0": 23
          },
          "indices": 24,
          "material": 0,
          "mode": 4
        }
      ]
    },
    {
      "name": "BezierCurve__0",
      "primitives": [
        {
          "attributes": {
            "NORMAL": 26,
            "POSITION": 25,
            "TANGENT": 27,
            "TEXCOORD_0": 28
          },
          "indices": 29,
          "material": 0,
          "mode": 4
        }
      ]
    },
    {
      "name": "Cylinder.001__0",
      "primitives": [
        {
          "attributes": {
            "NORMAL": 31,
            "POSITION": 30,
            "TANGENT": 32,
            "TEXCOORD_0": 33
          },
          "indices": 34,
          "material": 0,
          "mode": 4
        }
      ]
    },
    {
      "name": "Cylinder.002__0",
      "primitives": [
        {
          "attributes": {
            "NORMAL": 36,
            "POSITION": 35,
            "TANGENT": 37,
            "TEXCOORD_0": 38
          },
          "indices": 39,
          "material": 0,
          "mode": 4
        }
      ]
    }
  ],
  "nodes": [
    {
      "children": [
        1
      ],
      "matrix": [
        1.0,
        0.0,
        0.0,
        0.0,
        0.0,
        2.220446049250313e-16,
        -1.0,
        0.0,
        0.0,
        1.0,
        2.220446049250313e-16,
        0.0,
        0.0,
        0.0,
        0.0,
        1.0
      ],
      "name": "Sketchfab_model"
    },
    {
      "children": [
        2
      ],
      "matrix": [
        0.009999999776482582,
        0.0,
        0.0,
        0.0,
        0.0,
        0.0,
        0.009999999776482582,
        0.0,
        0.0,
        -0.009999999776482582,
        0.0,
        0.0,
        0.0,
        0.0,
        0.0,
        1.0
      ],
      "name": "dbf3bdb93d994e84a58bacee24fa2402.fbx"
    },
    {
      "children": [
        3,
        5,
        7,
        9,
        11,
        13,
        15,
        17
      ],
      "name": "RootNode"
    },
    {
      "children": [
        4
      ],
      "matrix": [
        100.0,
        0.0,
        0.0,
        0.0,
        0.0,
        -1.629206793918314e-05,
        -99.99999999999868,
        0.0,
        0.0,
        99.99999999999868,
        -1.629206793918314e-05,
        0.0,
        11.774358749389648,
        -0.6164583563804626,
        -5.831771687780929e-08,
        1.0
      ],
      "name": "Cube"
    },
    {
      "mesh": 0,
      "name": "Cube__0"
    },
    {
      "children": [
        6
      ],
      "matrix": [
        100.0,
        0.0,
        0.0,
        0.0,
        0.0,
        -1.629206793918314e-05,
        -99.99999999999868,
        0.0,
        0.0,
        99.99999999999868,
        -1.629206793918314e-05,
        0.0,
        0.24423645436763763,
        0.0,
        -0.008533732034265995,
        1.0
      ],
      "name": "Cube.001"
    },
    {
      "mesh": 1,
      "name": "Cube.001__0"
    },
    {
      "children": [
        8
      ],
      "matrix": [
        100.0,
        0.0,
        0.0,
        0.0,
        0.0,
        -1.629206793918314e-05,
        -99.99999999999868,
        0.0,
        0.0,
        99.99999999999868,
        -1.629206793918314e-05,
        0.0,
        11.774358749389648,
        -0.6164583563804626,
        -5.831771687780929e-08,
        1.0
      ],
      "name": "Cube.003"
    },
    {
      "mesh": 2,
      "name": "Cube.003__0"
    },
    {
      "children": [
        10
      ],
      "matrix": [
        100.0,
        0.0,
        0.0,
        0.0,
        0.0,
        -1.629206793918314e-05,
        -99.99999999999868,
        0.0,
        0.0,
        99.99999999999868,
        -1.629206793918314e-05,
        0.0,
        13.294736862182617,
        -0.6164583563804626,
        -5.831771687780929e-08,
        1.0
      ],
      "name": "Cube.004"
    },
    {
      "mesh": 3,
      "name": "Cube.004__0"
    },
    {
      "children": [
        12
      ],
      "matrix": [
        100.0,
        0.0,
        0.0,
        0.0,
        -0.0,
        -1.629206793918314e-05,
        -99.99999999999868,
        0.0,
        0.0,
        99.99999999999868,
        -1.629206793918314e-05,
        0.0,
        -39.44545364379883,
        7.769010066986084,
        -17.898052215576172,
        1.0
      ],
      "name": "Cube.032"
    },
    {
      "mesh": 4,
      "name": "Cube.032__0"
    },
    {
      "children": [
        14
      ],
      "matrix": [
        100.0,
        0.0,
        0.0,
        0.0,
        0.0,
        -1.629206793918314e-05,
        -99.99999999999868,
        0.0,
        0.0,
        99.99999999999868,
        -1.629206793918314e-05,
        0.0,
        65.77789306640625,
        54.85205841064453,
        -2.116103410720825,
        1.0
      ],
      "name": "BezierCurve"
    },
    {
      "mesh": 5,
      "name": "BezierCurve__0"
    },
    {
      "children": [
        16
      ],
      "matrix": [
        100.0,
        0.0,
        0.0,
        0.0,
        0.0,
        -1.629206793918314e-05,
        -99.99999999999868,
        0.0,
        0.0,
        99.99999999999868,
        -1.629206793918314e-05,
        0.0,
        44.18932342529297,
        44.00462341308594,
        -2.6005048751831055,
        1.0
      ],
      "name": "Cylinder.001"
    },
    {
      "mesh": 6,
      "name": "Cylinder.001__0"
    },
    {
      "children": [
        18
      ],
      "matrix": [
        100.0,
        0.0,
        0.0,
        0.0,
        0.0,
        -1.629206793918314e-05,
        -99.99999999999868,
        0.0,
        0.0,
        99.99999999999868,
        -1.629206793918314e-05,
        0.0,
        44.18932342529297,
        -45.40474319458008,
        -2.6005048751831055,
        1.0
      ],
      "name": "Cylinder.002"
    },
    {
      "mesh": 7,
      "name": "Cylinder.002__0"
    }
  ],
  "samplers": [
    {
      "magFilter": 9729,
      "minFilter": 9987,
      "wrapS": 10497,
      "wrapT": 10497
    }
  ],
  "scene": 0,
  "scenes": [
    {
      "name": "Sketchfab_Scene",
      "nodes": [
        0
      ]
    }
  ],
  "textures": [
    {
      "sampler": 0,
      "source": 0
    },
    {
      "sampler": 0,
      "source": 1
    },
    {
      "sampler": 0,
      "source": 2
    }
  ]
}
