{
  "extensionsUsed": [
    "KHR_materials_transmission",
    "KHR_materials_clearcoat",
    "KHR_materials_ior",
    "KHR_materials_specular",
    "KHR_materials_emissive_strength",
    "KHR_texture_transform"
  ],
  "accessors": [
    {
      "bufferView": 0,
      "componentType": 5126,
      "count": 1097,
      "type": "VEC3",
      "max": [
        0.4,
        0.36,
        0.0
      ],
      "min": [
        0.0,
        0.32,
        -0.4
      ]
    },
    {
      "bufferView": 1,
      "componentType": 5125,
      "count": 4170,
      "type": "SCALAR",
      "max": [
        1096.0
      ],
      "min": [
        0.0
      ]
    },
    {
      "bufferView": 2,
      "componentType": 5126,
      "count": 1097,
      "type": "VEC3",
      "max": [
        1.0,
        1.0,
        1.0
      ],
      "min": [
        -1.0,
        -1.0,
        -1.0
      ]
    },
    {
      "bufferView": 3,
      "componentType": 5126,
      "count": 1097,
      "type": "VEC2",
      "max": [
        0.7711653,
        0.99853516
      ],
      "min": [
        0.0,
        0.0
      ]
    },
    {
      "bufferView": 4,
      "componentType": 5126,
      "count": 146,
      "type": "VEC3",
      "max": [
        0.37,
        0.16,
        -0.06
      ],
      "min": [
        0.35,
        0.14,
        -0.34
      ]
    },
    {
      "bufferView": 5,
      "componentType": 5125,
      "count": 420,
      "type": "SCALAR",
      "max": [
        145.0
      ],
      "min": [
        0.0
      ]
    },
    {
      "bufferView": 6,
      "componentType": 5126,
      "count": 146,
      "type": "VEC3",
      "max": [
        1.0,
        1.0,
        1.0
      ],
      "min": [
        -1.0,
        -1.0,
        -1.0
      ]
    },
    {
      "bufferView": 7,
      "componentType": 5126,
      "count": 146,
      "type": "VEC2",
      "max": [
        0.32626793,
        0.99853516
      ],
      "min": [
        0.00069992454,
        0.0
      ]
    },
    {
      "bufferView": 8,
      "componentType": 5126,
      "count": 146,
      "type": "VEC3",
      "max": [
        0.34,
        0.16,
        -0.03
      ],
      "min": [
        0.06,
        0.14,
        -0.05
      ]
    },
    {
      "bufferView": 9,
      "componentType": 5125,
      "count": 420,
      "type": "SCALAR",
      "max": [
        145.0
      ],
      "min": [
        0.0
      ]
    },
    {
      "bufferView": 10,
      "componentType": 5126,
      "count": 146,
      "type": "VEC3",
      "max": [
        1.0,
        1.0,
        1.0
      ],
      "min": [
        -1.0,
        -1.0,
        -1.0
      ]
    },
    {
      "bufferView": 11,
      "componentType": 5126,
      "count": 146,
      "type": "VEC2",
      "max": [
        0.32626793,
        0.99853516
      ],
      "min": [
        0.0006999266,
        0.0
      ]
    },
    {
      "bufferView": 12,
      "componentType": 5126,
      "count": 146,
      "type": "VEC3",
      "max": [
        0.05,
        0.16,
        -0.06
      ],
      "min": [
        0.03,
        0.14,
        -0.34
      ]
    },
    {
      "bufferView": 13,
      "componentType": 5125,
      "count": 420,
      "type": "SCALAR",
      "max": [
        145.0
      ],
      "min": [
        0.0
      ]
    },
    {
      "bufferView": 14,
      "componentType": 5126,
      "count": 146,
      "type": "VEC3",
      "max": [
        1.0,
        1.0,
        1.0
      ],
      "min": [
        -1.0,
        -1.0,
        -1.0
      ]
    },
    {
      "bufferView": 15,
      "componentType": 5126,
      "count": 146,
      "type": "VEC2",
      "max": [
        0.32626793,
        0.99853516
      ],
      "min": [
        0.0006999266,
        0.0
      ]
    },
    {
      "bufferView": 16,
      "componentType": 5126,
      "count": 146,
      "type": "VEC3",
      "max": [
        0.34,
        0.16,
        -0.35
      ],
      "min": [
        0.06,
        0.14,
        -0.37
      ]
    },
    {
      "bufferView": 17,
      "componentType": 5125,
      "count": 420,
      "type": "SCALAR",
      "max": [
        145.0
      ],
      "min": [
        0.0
      ]
    },
    {
      "bufferView": 18,
      "componentType": 5126,
      "count": 146,
      "type": "VEC3",
      "max": [
        1.0,
        1.0,
        1.0
      ],
      "min": [
        -1.0,
        -1.0,
        -1.0
      ]
    },
    {
      "bufferView": 19,
      "componentType": 5126,
      "count": 146,
      "type": "VEC2",
      "max": [
        0.32626793,
        0.99853516
      ],
      "min": [
        0.00069992454,
        0.0
      ]
    },
    {
      "bufferView": 20,
      "componentType": 5126,
      "count": 200,
      "type": "VEC3",
      "max": [
        0.38,
        0.32,
        -0.02
      ],
      "min": [
        0.34,
        0.0,
        -0.06
      ]
    },
    {
      "bufferView": 21,
      "componentType": 5125,
      "count": 612,
      "type": "SCALAR",
      "max": [
        199.0
      ],
      "min": [
        0.0
      ]
    },
    {
      "bufferView": 22,
      "componentType": 5126,
      "count": 200,
      "type": "VEC3",
      "max": [
        1.0,
        1.0,
        1.0
      ],
      "min": [
        -1.0,
        -1.0,
        -1.0
      ]
    },
    {
      "bufferView": 23,
      "componentType": 5126,
      "count": 200,
      "type": "VEC2",
      "max": [
        0.99853516,
        0.90926856
      ],
      "min": [
        0.0,
        0.0
      ]
    },
    {
      "bufferView": 24,
      "componentType": 5126,
      "count": 200,
      "type": "VEC3",
      "max": [
        0.06,
        0.32,
        -0.02
      ],
      "min": [
        0.02,
        0.0,
        -0.06
      ]
    },
    {
      "bufferView": 25,
      "componentType": 5125,
      "count": 612,
      "type": "SCALAR",
      "max": [
        199.0
      ],
      "min": [
        0.0
      ]
    },
    {
      "bufferView": 26,
      "componentType": 5126,
      "count": 200,
      "type": "VEC3",
      "max": [
        1.0,
        1.0,
        1.0
      ],
      "min": [
        -1.0,
        -1.0,
        -1.0
      ]
    },
    {
      "bufferView": 27,
      "componentType": 5126,
      "count": 200,
      "type": "VEC2",
      "max": [
        0.99853516,
        0.90926856
      ],
      "min": [
        0.0,
        0.0
      ]
    },
    {
      "bufferView": 28,
      "componentType": 5126,
      "count": 200,
      "type": "VEC3",
      "max": [
        0.06,
        0.32,
        -0.34
      ],
      "min": [
        0.02,
        0.0,
        -0.38
      ]
    },
    {
      "bufferView": 29,
      "componentType": 5125,
      "count": 612,
      "type": "SCALAR",
      "max": [
        199.0
      ],
      "min": [
        0.0
      ]
    },
    {
      "bufferView": 30,
      "componentType": 5126,
      "count": 200,
      "type": "VEC3",
      "max": [
        1.0,
        1.0,
        1.0
      ],
      "min": [
        -1.0,
        -1.0,
        -1.0
      ]
    },
    {
      "bufferView": 31,
      "componentType": 5126,
      "count": 200,
      "type": "VEC2",
      "max": [
        0.99853516,
        0.90926856
      ],
      "min": [
        0.0,
        0.0
      ]
    },
    {
      "bufferView": 32,
      "componentType": 5126,
      "count": 200,
      "type": "VEC3",
      "max": [
        0.38,
        0.32,
        -0.34
      ],
      "min": [
        0.34,
        0.0,
        -0.38
      ]
    },
    {
      "bufferView": 33,
      "componentType": 5125,
      "count": 612,
      "type": "SCALAR",
      "max": [
        199.0
      ],
      "min": [
        0.0
      ]
    },
    {
      "bufferView": 34,
      "componentType": 5126,
      "count": 200,
      "type": "VEC3",
      "max": [
        1.0,
        1.0,
        1.0
      ],
      "min": [
        -1.0,
        -1.0,
        -1.0
      ]
    },
    {
      "bufferView": 35,
      "componentType": 5126,
      "count": 200,
      "type": "VEC2",
      "max": [
        0.99853516,
        0.90926856
      ],
      "min": [
        0.0,
        0.0
      ]
    },
    {
      "bufferView": 36,
      "componentType": 5126,
      "count": 146,
      "type": "VEC3",
      "max": [
        0.37,
        0.32,
        -0.06
      ],
      "min": [
        0.35,
        0.3,
        -0.34
      ]
    },
    {
      "bufferView": 37,
      "componentType": 5125,
      "count": 420,
      "type": "SCALAR",
      "max": [
        145.0
      ],
      "min": [
        0.0
      ]
    },
    {
      "bufferView": 38,
      "componentType": 5126,
      "count": 146,
      "type": "VEC3",
      "max": [
        1.0,
        1.0,
        1.0
      ],
      "min": [
        -1.0,
        -1.0,
        -1.0
      ]
    },
    {
      "bufferView": 39,
      "componentType": 5126,
      "count": 146,
      "type": "VEC2",
      "max": [
        0.32626793,
        0.99853516
      ],
      "min": [
        0.00069992454,
        0.0
      ]
    },
    {
      "bufferView": 40,
      "componentType": 5126,
      "count": 146,
      "type": "VEC3",
      "max": [
        0.34,
        0.32,
        -0.03
      ],
      "min": [
        0.06,
        0.3,
        -0.05
      ]
    },
    {
      "bufferView": 41,
      "componentType": 5125,
      "count": 420,
      "type": "SCALAR",
      "max": [
        145.0
      ],
      "min": [
        0.0
      ]
    },
    {
      "bufferView": 42,
      "componentType": 5126,
      "count": 146,
      "type": "VEC3",
      "max": [
        1.0,
        1.0,
        1.0
      ],
      "min": [
        -1.0,
        -1.0,
        -1.0
      ]
    },
    {
      "bufferView": 43,
      "componentType": 5126,
      "count": 146,
      "type": "VEC2",
      "max": [
        0.32626793,
        0.99853516
      ],
      "min": [
        0.0006999266,
        0.0
      ]
    },
    {
      "bufferView": 44,
      "componentType": 5126,
      "count": 146,
      "type": "VEC3",
      "max": [
        0.05,
        0.32,
        -0.06
      ],
      "min": [
        0.03,
        0.3,
        -0.34
      ]
    },
    {
      "bufferView": 45,
      "componentType": 5125,
      "count": 420,
      "type": "SCALAR",
      "max": [
        145.0
      ],
      "min": [
        0.0
      ]
    },
    {
      "bufferView": 46,
      "componentType": 5126,
      "count": 146,
      "type": "VEC3",
      "max": [
        1.0,
        1.0,
        1.0
      ],
      "min": [
        -1.0,
        -1.0,
        -1.0
      ]
    },
    {
      "bufferView": 47,
      "componentType": 5126,
      "count": 146,
      "type": "VEC2",
      "max": [
        0.32626793,
        0.99853516
      ],
      "min": [
        0.0006999266,
        0.0
      ]
    },
    {
      "bufferView": 48,
      "componentType": 5126,
      "count": 146,
      "type": "VEC3",
      "max": [
        0.34,
        0.32,
        -0.35
      ],
      "min": [
        0.06,
        0.3,
        -0.37
      ]
    },
    {
      "bufferView": 49,
      "componentType": 5125,
      "count": 420,
      "type": "SCALAR",
      "max": [
        145.0
      ],
      "min": [
        0.0
      ]
    },
    {
      "bufferView": 50,
      "componentType": 5126,
      "count": 146,
      "type": "VEC3",
      "max": [
        1.0,
        1.0,
        1.0
      ],
      "min": [
        -1.0,
        -1.0,
        -1.0
      ]
    },
    {
      "bufferView": 51,
      "componentType": 5126,
      "count": 146,
      "type": "VEC2",
      "max": [
        0.32626793,
        0.99853516
      ],
      "min": [
        0.00069992454,
        0.0
      ]
    }
  ],
  "asset": {
    "version": "2.0"
  },
  "buffers": [
    {
      "uri": "data:application/octet-stream;base64,",
      "byteLength": 13164
    },
    {
      "uri": "data:application/octet-stream;base64,",
      "byteLength": 16680
    },
    {
      "uri": "data:application/octet-stream;base64,",
      "byteLength": 13164
    },
    {
      "uri": "data:application/octet-stream;base64,",
      "byteLength": 8776
    },
    {
      "uri": "data:application/octet-stream;base64,",
      "byteLength": 1752
    },
    {
      "uri": "data:application/octet-stream;base64,",
      "byteLength": 1680
    },
    {
      "uri": "data:application/octet-stream;base64,",
      "byteLength": 1752
    },
    {
      "uri": "data:application/octet-stream;base64,",
      "byteLength": 1168
    },
    {
      "uri": "data:application/octet-stream;base64,",
      "byteLength": 1752
    },
    {
      "uri": "data:application/octet-stream;base64,",
      "byteLength": 1680
    },
    {
      "uri": "data:application/octet-stream;base64,",
      "byteLength": 1752
    },
    {
      "uri": "data:application/octet-stream;base64,",
      "byteLength": 1168
    },
    {
      "uri": "data:application/octet-stream;base64,",
      "byteLength": 1752
    },
    {
      "uri": "data:application/octet-stream;base64,",
      "byteLength": 1680
    },
    {
      "uri": "data:application/octet-stream;base64,",
      "byteLength": 1752
    },
    {
      "uri": "data:application/octet-stream;base64,",
      "byteLength": 1168
    },
    {
      "uri": "data:application/octet-stream;base64,",
      "byteLength": 1752
    },
    {
      "uri": "data:application/octet-stream;base64,",
      "byteLength": 1680
    },
    {
      "uri": "data:application/octet-stream;base64,",
      "byteLength": 1752
    },
    {
      "uri": "data:application/octet-stream;base64,",
      "byteLength": 1168
    },
    {
      "uri": "data:application/octet-stream;base64,",
      "byteLength": 2400
    },
    {
      "uri": "data:application/octet-stream;base64,",
      "byteLength": 2448
    },
    {
      "uri": "data:application/octet-stream;base64,",
      "byteLength": 2400
    },
    {
      "uri": "data:application/octet-stream;base64,",
      "byteLength": 1600
    },
    {
      "uri": "data:application/octet-stream;base64,",
      "byteLength": 2400
    },
    {
      "uri": "data:application/octet-stream;base64,",
      "byteLength": 2448
    },
    {
      "uri": "data:application/octet-stream;base64,",
      "byteLength": 2400
    },
    {
      "uri": "data:application/octet-stream;base64,",
      "byteLength": 1600
    },
    {
      "uri": "data:application/octet-stream;base64,",
      "byteLength": 2400
    },
    {
      "uri": "data:application/octet-stream;base64,",
      "byteLength": 2448
    },
    {
      "uri": "data:application/octet-stream;base64,",
      "byteLength": 2400
    },
    {
      "uri": "data:application/octet-stream;base64,",
      "byteLength": 1600
    },
    {
      "uri": "data:application/octet-stream;base64,",
      "byteLength": 2400
    },
    {
      "uri": "data:application/octet-stream;base64,",
      "byteLength": 2448
    },
    {
      "uri": "data:application/octet-stream;base64,",
      "byteLength": 2400
    },
    {
      "uri": "data:application/octet-stream;base64,",
      "byteLength": 1600
    },
    {
      "uri": "data:application/octet-stream;base64,",
      "byteLength": 1752
    },
    {
      "uri": "data:application/octet-stream;base64,",
      "byteLength": 1680
    },
    {
      "uri": "data:application/octet-stream;base64,",
      "byteLength": 1752
    },
    {
      "uri": "data:application/octet-stream;base64,",
      "byteLength": 1168
    },
    {
      "uri": "data:application/octet-stream;base64,",
      "byteLength": 1752
    },
    {
      "uri": "data:application/octet-stream;base64,",
      "byteLength": 1680
    },
    {
      "uri": "data:application/octet-stream;base64,",
      "byteLength": 1752
    },
    {
      "uri": "data:application/octet-stream;base64,",
      "byteLength": 1168
    },
    {
      "uri": "data:application/octet-stream;base64,",
      "byteLength": 1752
    },
    {
      "uri": "data:application/octet-stream;base64,",
      "byteLength": 1680
    },
    {
      "uri": "data:application/octet-stream;base64,",
      "byteLength": 1752
    },
    {
      "uri": "data:application/octet-stream;base64,",
      "byteLength": 1168
    },
    {
      "uri": "data:application/octet-stream;base64,",
      "byteLength": 1752
    },
    {
      "uri": "data:application/octet-stream;base64,",
      "byteLength": 1680
    },
    {
      "uri": "data:application/octet-stream;base64,",
      "byteLength": 1752
    },
    {
      "uri": "data:application/octet-stream;base64,",
      "byteLength": 1168
    }
  ],
  "bufferViews": [
    {
      "buffer": 0,
      "byteLength": 13164,
      "target": 34962
    },
    {
      "buffer": 1,
      "byteLength": 16680,
      "target": 34963
    },
    {
      "buffer": 2,
      "byteLength": 13164,
      "target": 34962
    },
    {
      "buffer": 3,
      "byteLength": 8776,
      "target": 34962
    },
    {
      "buffer": 4,
      "byteLength": 1752,
      "target": 34962
    },
    {
      "buffer": 5,
      "byteLength": 1680,
      "target": 34963
    },
    {
      "buffer": 6,
      "byteLength": 1752,
      "target": 34962
    },
    {
      "buffer": 7,
      "byteLength": 1168,
      "target": 34962
    },
    {
      "buffer": 8,
      "byteLength": 1752,
      "target": 34962
    },
    {
      "buffer": 9,
      "byteLength": 1680,
      "target": 34963
    },
    {
      "buffer": 10,
      "byteLength": 1752,
      "target": 34962
    },
    {
      "buffer": 11,
      "byteLength": 1168,
      "target": 34962
    },
    {
      "buffer": 12,
      "byteLength": 1752,
      "target": 34962
    },
    {
      "buffer": 13,
      "byteLength": 1680,
      "target": 34963
    },
    {
      "buffer": 14,
      "byteLength": 1752,
      "target": 34962
    },
    {
      "buffer": 15,
      "byteLength": 1168,
      "target": 34962
    },
    {
      "buffer": 16,
      "byteLength": 1752,
      "target": 34962
    },
    {
      "buffer": 17,
      "byteLength": 1680,
      "target": 34963
    },
    {
      "buffer": 18,
      "byteLength": 1752,
      "target": 34962
    },
    {
      "buffer": 19,
      "byteLength": 1168,
      "target": 34962
    },
    {
      "buffer": 20,
      "byteLength": 2400,
      "target": 34962
    },
    {
      "buffer": 21,
      "byteLength": 2448,
      "target": 34963
    },
    {
      "buffer": 22,
      "byteLength": 2400,
      "target": 34962
    },
    {
      "buffer": 23,
      "byteLength": 1600,
      "target": 34962
    },
    {
      "buffer": 24,
      "byteLength": 2400,
      "target": 34962
    },
    {
      "buffer": 25,
      "byteLength": 2448,
      "target": 34963
    },
    {
      "buffer": 26,
      "byteLength": 2400,
      "target": 34962
    },
    {
      "buffer": 27,
      "byteLength": 1600,
      "target": 34962
    },
    {
      "buffer": 28,
      "byteLength": 2400,
      "target": 34962
    },
    {
      "buffer": 29,
      "byteLength": 2448,
      "target": 34963
    },
    {
      "buffer": 30,
      "byteLength": 2400,
      "target": 34962
    },
    {
      "buffer": 31,
      "byteLength": 1600,
      "target": 34962
    },
    {
      "buffer": 32,
      "byteLength": 2400,
      "target": 34962
    },
    {
      "buffer": 33,
      "byteLength": 2448,
      "target": 34963
    },
    {
      "buffer": 34,
      "byteLength": 2400,
      "target": 34962
    },
    {
      "buffer": 35,
      "byteLength": 1600,
      "target": 34962
    },
    {
      "buffer": 36,
      "byteLength": 1752,
      "target": 34962
    },
    {
      "buffer": 37,
      "byteLength": 1680,
      "target": 34963
    },
    {
      "buffer": 38,
      "byteLength": 1752,
      "target": 34962
    },
    {
      "buffer": 39,
      "byteLength": 1168,
      "target": 34962
    },
    {
      "buffer": 40,
      "byteLength": 1752,
      "target": 34962
    },
    {
      "buffer": 41,
      "byteLength": 1680,
      "target": 34963
    },
    {
      "buffer": 42,
      "byteLength": 1752,
      "target": 34962
    },
    {
      "buffer": 43,
      "byteLength": 1168,
      "target": 34962
    },
    {
      "buffer": 44,
      "byteLength": 1752,
      "target": 34962
    },
    {
      "buffer": 45,
      "byteLength": 1680,
      "target": 34963
    },
    {
      "buffer": 46,
      "byteLength": 1752,
      "target": 34962
    },
    {
      "buffer": 47,
      "byteLength": 1168,
      "target": 34962
    },
    {
      "buffer": 48,
      "byteLength": 1752,
      "target": 34962
    },
    {
      "buffer": 49,
      "byteLength": 1680,
      "target": 34963
    },
    {
      "buffer": 50,
      "byteLength": 1752,
      "target": 34962
    },
    {
      "buffer": 51,
      "byteLength": 1168,
      "target": 34962
    }
  ],
  "meshes": [
    {
      "primitives": [
        {
          "attributes": {
            "POSITION": 0,
            "NORMAL": 2,
            "TEXCOORD_0": 3
          },
          "indices": 1
        }
      ]
    },
    {
      "primitives": [
        {
          "attributes": {
            "POSITION": 4,
            "NORMAL": 6,
            "TEXCOORD_0": 7
          },
          "indices": 5
        }
      ]
    },
    {
      "primitives": [
        {
          "attributes": {
            "POSITION": 8,
            "NORMAL": 10,
            "TEXCOORD_0": 11
          },
          "indices": 9
        }
      ]
    },
    {
      "primitives": [
        {
          "attributes": {
            "POSITION": 12,
            "NORMAL": 14,
            "TEXCOORD_0": 15
          },
          "indices": 13
        }
      ]
    },
    {
      "primitives": [
        {
          "attributes": {
            "POSITION": 16,
            "NORMAL": 18,
            "TEXCOORD_0": 19
          },
          "indices": 17
        }
      ]
    },
    {
      "primitives": [
        {
          "attributes": {
            "POSITION": 20,
            "NORMAL": 22,
            "TEXCOORD_0": 23
          },
          "indices": 21
        }
      ]
    },
    {
      "primitives": [
        {
          "attributes": {
            "POSITION": 24,
            "NORMAL": 26,
            "TEXCOORD_0": 27
          },
          "indices": 25
        }
      ]
    },
    {
      "primitives": [
        {
          "attributes": {
            "POSITION": 28,
            "NORMAL": 30,
            "TEXCOORD_0": 31
          },
          "indices": 29
        }
      ]
    },
    {
      "primitives": [
        {
          "attributes": {
            "POSITION": 32,
            "NORMAL": 34,
            "TEXCOORD_0": 35
          },
          "indices": 33
        }
      ]
    },
    {
      "primitives": [
        {
          "attributes": {
            "POSITION": 36,
            "NORMAL": 38,
            "TEXCOORD_0": 39
          },
          "indices": 37
        }
      ]
    },
    {
      "primitives": [
        {
          "attributes": {
            "POSITION": 40,
            "NORMAL": 42,
            "TEXCOORD_0": 43
          },
          "indices": 41
        }
      ]
    },
    {
      "primitives": [
        {
          "attributes": {
            "POSITION": 44,
            "NORMAL": 46,
            "TEXCOORD_0": 47
          },
          "indices": 45
        }
      ]
    },
    {
      "primitives": [
        {
          "attributes": {
            "POSITION": 48,
            "NORMAL": 50,
            "TEXCOORD_0": 51
          },
          "indices": 49
        }
      ]
    }
  ],
  "nodes": [
    {
      "mesh": 0
    },
    {
      "mesh": 1
    },
    {
      "mesh": 2
    },
    {
      "mesh": 3
    },
    {
      "mesh": 4
    },
    {
      "mesh": 5
    },
    {
      "mesh": 6
    },
    {
      "mesh": 7
    },
    {
      "mesh": 8
    },
    {
      "mesh": 9
    },
    {
      "mesh": 10
    },
    {
      "mesh": 11
    },
    {
      "mesh": 12
    }
  ],
  "samplers": [
    {
      "magFilter": 9729,
      "minFilter": 9729
    }
  ],
  "scene": 0,
  "scenes": [
    {
      "nodes": [
        0,
        1,
        2,
        3,
        4,
        5,
        6,
        7,
        8,
        9,
        10,
        11,
        12
      ],
      "extensions": {}
    }
  ],
  "extensions": {}
}